<svg xmlns="http://www.w3.org/2000/svg" width="32" height="32" viewBox="0 0 32 32">
  <rect width="32" height="32" rx="4" fill="#000"/>
  <g fill="none" stroke="#facc15" stroke-width="2" stroke-linecap="round" stroke-linejoin="round" transform="translate(4,4) scale(1)">
    <path d="M14.531 12.469 6.619 20.38a1 1 0 0 1-3-3l7.912-7.912"/>
    <path d="M15.686 4.314A12.5 12.5 0 0 0 5.461 2.958 1 1 0 0 0 5.58 4.71a22 22 0 0 1 6.318 3.393"/>
    <path d="M17.7 3.7a1 1 0 0 0-1.4 0l-4.6 4.6a1 1 0 0 0 0 1.4l2.6 2.6a1 1 0 0 0 1.4 0l4.6-4.6a1 1 0 0 0 0-1.4Z"/>
    <path d="M19.686 8.314a12.5 12.5 0 0 1 1.356 10.225 1 1 0 0 1-1.751-.119 22 22 0 0 0-3.393-6.318"/>
  </g>
</svg>
