<?xml version="1.0" encoding="UTF-8" standalone="no"?>
<!-- Created with Inkscape (http://www.inkscape.org/) -->

<svg
   xmlns:dc="http://purl.org/dc/elements/1.1/"
   xmlns:cc="http://creativecommons.org/ns#"
   xmlns:rdf="http://www.w3.org/1999/02/22-rdf-syntax-ns#"
   xmlns:svg="http://www.w3.org/2000/svg"
   xmlns="http://www.w3.org/2000/svg"
   xmlns:sodipodi="http://sodipodi.sourceforge.net/DTD/sodipodi-0.dtd"
   xmlns:inkscape="http://www.inkscape.org/namespaces/inkscape"
   width="11.493064mm"
   height="11.209466mm"
   viewBox="0 0 11.493064 11.209466"
   version="1.1"
   id="svg4088"
   inkscape:version="0.92.3 (2405546, 2018-03-11)"
   sodipodi:docname="github.svg">
  <defs
     id="defs4082" />
  <sodipodi:namedview
     id="base"
     pagecolor="#ffffff"
     bordercolor="#666666"
     borderopacity="1.0"
     inkscape:pageopacity="0.0"
     inkscape:pageshadow="2"
     inkscape:zoom="1.979899"
     inkscape:cx="90.290761"
     inkscape:cy="65.055631"
     inkscape:document-units="mm"
     inkscape:current-layer="layer1"
     showgrid="false"
     inkscape:window-width="1600"
     inkscape:window-height="836"
     inkscape:window-x="0"
     inkscape:window-y="27"
     inkscape:window-maximized="1" />
  <metadata
     id="metadata4085">
    <rdf:RDF>
      <cc:Work
         rdf:about="">
        <dc:format>image/svg+xml</dc:format>
        <dc:type
           rdf:resource="http://purl.org/dc/dcmitype/StillImage" />
        <dc:title></dc:title>
      </cc:Work>
    </rdf:RDF>
  </metadata>
  <g
     inkscape:label="Layer 1"
     inkscape:groupmode="layer"
     id="layer1"
     transform="translate(-6.3486646,-7.157169)">
    <path
       d="m 12.094709,7.157169 c -3.1732364,0 -5.7460444,2.57281 -5.7460444,5.74675 0,2.53894 1.646414,4.69265 3.9299444,5.45289 0.287514,0.0526 0.392289,-0.12489 0.392289,-0.27729 0,-0.13617 -0.0049,-0.49776 -0.0078,-0.97719 -1.5984364,0.34713 -1.9356924,-0.77047 -1.9356924,-0.77047 -0.261408,-0.66392 -0.638174,-0.84067 -0.638174,-0.84067 -0.521759,-0.3563 0.03951,-0.34925 0.03951,-0.34925 0.576791,0.0406 0.88018,0.59232 0.88018,0.59232 0.512586,0.87806 1.3451424,0.62441 1.6725204,0.47731 0.05221,-0.37113 0.200377,-0.62442 0.364772,-0.768 -1.2759974,-0.14499 -2.6176114,-0.63818 -2.6176114,-2.84021 0,-0.62724 0.224014,-1.14018 0.591608,-1.542 -0.05927,-0.14534 -0.256469,-0.72954 0.05609,-1.52082 0,0 0.4826,-0.15452 1.5804444,0.58914 0.458258,-0.12771 0.950031,-0.19121 1.438628,-0.19332 0.487891,0.002 0.979664,0.0656 1.438628,0.19332 1.097138,-0.74366 1.57868,-0.58914 1.57868,-0.58914 0.313619,0.79128 0.116417,1.37548 0.05715,1.52082 0.3683,0.40182 0.590903,0.91476 0.590903,1.542 0,2.20768 -1.343731,2.69345 -2.623961,2.83562 0.206375,0.17745 0.390172,0.52811 0.390172,1.06433 0,0.768 -0.0071,1.38783 -0.0071,1.57621 0,0.15382 0.103364,0.33267 0.395111,0.27658 2.28177,-0.76164 3.926773,-2.91394 3.926773,-5.45218 0,-3.17394 -2.573161,-5.74675 -5.747103,-5.74675"
       style="fill:#808000;fill-opacity:1;fill-rule:evenodd;stroke:none;stroke-width:0.35277775"
       id="path198"
       inkscape:connector-curvature="0" />
  </g>
</svg>
